HIERARCHY
ROOT Hips
{
	OFFSET 0.00000 0.00000 0.00000
	CHANNELS 6 Xposition Yposition Zposition Zrotation Yrotation Xrotation 
	JOINT LHipJoint
	{
		OFFSET 0 0 0
		CHANNELS 3 Zrotation Yrotation Xrotation
		JOINT LeftHip
		{
			OFFSET 1.75344 -1.53157 0.77399
			CHANNELS 3 Zrotation Yrotation Xrotation
			JOINT LeftKnee
			{
				OFFSET 2.25415 -6.19323 0.00000
				CHANNELS 3 Zrotation Yrotation Xrotation
				JOINT LeftAnkle
				{
					OFFSET 2.30342 -6.32861 0.00000
					CHANNELS 3 Zrotation Yrotation Xrotation
					JOINT LeftToe
					{
						OFFSET 0.10958 -0.30108 1.49206
						CHANNELS 3 Zrotation Yrotation Xrotation
						End Site
						{
							OFFSET 0.00000 -0.00000 0.77783
						}
					}
				}
			}
		}
	}
	JOINT RHipJoint
	{
		OFFSET 0 0 0
		CHANNELS 3 Zrotation Yrotation Xrotation
		JOINT RightHip
		{
			OFFSET -1.81912 -1.53156 0.77399
			CHANNELS 3 Zrotation Yrotation Xrotation
			JOINT RightKnee
			{
				OFFSET -2.22882 -6.12365 0.00000
				CHANNELS 3 Zrotation Yrotation Xrotation
				JOINT RightAnkle
				{
					OFFSET -2.21943 -6.09785 0.00000
					CHANNELS 3 Zrotation Yrotation Xrotation
					JOINT RightToe
					{
						OFFSET -0.18931 -0.52012 1.59379
						CHANNELS 3 Zrotation Yrotation Xrotation
						End Site
						{
							OFFSET -0.00000 -0.00000 0.84686
						}
					}
				}
			}
		}
	}
	JOINT lowerback
	{
		OFFSET 0 0 0
		CHANNELS 3 Zrotation Yrotation Xrotation
		JOINT Chest
		{
			OFFSET -0.00200 1.66634 -0.14248
			CHANNELS 3 Zrotation Yrotation Xrotation
			JOINT Chest2
			{
				OFFSET -0.00875 1.64542 0.09514
				CHANNELS 3 Zrotation Yrotation Xrotation
				JOINT lowerneck
				{
					OFFSET 0 0 0
					CHANNELS 3 Zrotation Yrotation Xrotation
					JOINT Neck
					{
						OFFSET 0.02257 1.59605 0.00839
						CHANNELS 3 Zrotation Yrotation Xrotation
						JOINT Head
						{
							OFFSET -0.10214 1.57530 -0.23335
							CHANNELS 3 Zrotation Yrotation Xrotation
							End Site
							{
								OFFSET -0.03588 1.60717 -0.08062
							}
						}
					}
				}
				JOINT LeftCollar
				{
					OFFSET 0 0 0
					CHANNELS 3 Zrotation Yrotation Xrotation
					JOINT LeftShoulder
					{
						OFFSET 2.54983 1.10186 0.40078
CHANNELS 3 Zrotation Xrotation Yrotation
						JOINT LeftElbow
						{
OFFSET 0 -4.288400 0.000000
CHANNELS 3 Zrotation Xrotation Yrotation
							JOINT LeftWrist
							{
OFFSET 0 -3.065520 -0.000000
CHANNELS 3 Zrotation Xrotation Yrotation
								JOINT lhand
								{
									OFFSET 0 0 0
CHANNELS 3 Zrotation Xrotation Yrotation
									JOINT LFingers
									{
OFFSET 0 -0.753040 0.000000
CHANNELS 3 Zrotation Xrotation Yrotation
										End Site
										{
OFFSET 0 -0.607120 0.000000
										}
									}
								}
								JOINT LThumb
								{
OFFSET 0 0.000000 0.000000
CHANNELS 3 Zrotation Xrotation Yrotation
									End Site
									{
OFFSET 0 -0.616390 0.616390
									}
								}
							}
						}
					}
				}
				JOINT RightCollar
				{
					OFFSET 0 0 0
					CHANNELS 3 Zrotation Yrotation Xrotation
					JOINT RightShoulder
					{
						OFFSET -2.60909 1.35448 0.21802
CHANNELS 3 Zrotation Xrotation Yrotation
						JOINT RightElbow
						{
OFFSET 0 -4.521720 -0.000000
CHANNELS 3 Zrotation Xrotation Yrotation
							JOINT RightWrist
							{
OFFSET 0 -2.891400 0.000000
CHANNELS 3 Zrotation Xrotation Yrotation
								JOINT rhand
								{
									OFFSET 0 0 0
CHANNELS 3 Zrotation Xrotation Yrotation
									JOINT RFingers
									{
OFFSET 0 -0.680540 0.000000
CHANNELS 3 Zrotation Xrotation Yrotation
										End Site
										{
OFFSET 0 -0.548670 0.000000
										}
									}
								}
								JOINT RThumb
								{
OFFSET 0 0.000000 0.000000
CHANNELS 3 Zrotation Xrotation Yrotation
									End Site
									{
OFFSET 0 -0.557050 0.557050
									}
								}
							}
						}
					}
				}
			}
		}
	}
}
MOTION
Frames: 6
Frame Time: 0.008333333333333333
19.806369 15.308748 -35.356469 10.555806 68.609583 365.638636 0.000000 0.000000 0.000000 -29.684243 -0.781222 19.489914 0.446427 4.286686 11.884719 0.482661 13.581466 -24.133961 1.089187 -6.630697 -18.626482 0.000000 0.000000 0.000000 14.667972 30.208470 -17.522446 -1.214256 -6.990144 19.686140 -7.812953 -29.284465 -65.050297 -6.226537 -14.642846 45.881469 -6.514497 -3.347508 2.893267 0.034610 -4.854990 -5.934655 4.091132 -1.981348 -7.322818 -8.290596 -6.465658 -9.442062 12.218225 -9.665744 16.897532 4.443355 -4.068966 7.759108 0.000000 0.000000 0.000000 40.145484 -45.966010 -20.555489 14.472858 -23.406543 3.013525 6.089166 30.915689 41.251347 0.000000 0.000000 0.000000 -7.125000 0.000000 0.000000 -15.060246 -10.190672 -18.064806 0.000000 0.000000 0.000000 -66.827744 -27.997337 4.999862 -15.013463 -24.164311 -3.231789 -9.748218 29.165058 47.818065 0.000000 0.000000 0.000000 7.125000 0.000000 0.000000 -13.952663 -13.961110 -169.503881
20.211607 15.276008 -35.085002 12.209961 68.347298 367.513476 0.000000 0.000000 0.000000 -29.552281 0.279606 19.807613 0.564472 4.812066 13.373345 0.551318 12.074315 -23.117710 0.813843 -5.753278 -16.071362 0.000000 0.000000 0.000000 15.745949 25.137721 -18.097072 -1.220171 -7.006444 19.734450 -5.458270 -30.806236 -60.209128 -5.523379 -13.950007 43.037501 -6.781000 -3.419937 2.548840 0.159754 -4.934616 -6.028514 4.353682 -2.004385 -7.185394 -8.247146 -6.825139 -10.146109 12.568882 -10.191924 16.725570 4.470576 -4.263449 7.909638 0.000000 0.000000 0.000000 39.123841 -47.454073 -18.684609 13.951446 -22.665161 2.809418 5.172697 34.419036 42.019269 0.000000 0.000000 0.000000 -7.125000 0.000000 0.000000 -15.580352 -10.808696 -18.866719 0.000000 0.000000 0.000000 -67.422225 -27.886807 1.942642 -14.622250 -23.617155 -3.073012 -8.529230 30.633324 46.745859 0.000000 0.000000 0.000000 7.125000 0.000000 0.000000 -14.511609 -15.245882 -169.466595
20.637255 15.221907 -34.759132 14.022641 67.925876 369.454925 0.000000 0.000000 0.000000 -28.794397 2.283843 19.023580 0.827629 5.802971 16.214021 0.368980 10.654621 -19.807919 1.658044 -8.079988 -22.976861 0.000000 0.000000 0.000000 16.621903 24.862651 -16.164694 -1.226461 -7.023855 19.786075 -7.041845 -27.854798 -62.374470 -6.405979 -14.810015 46.589089 -7.479767 -3.882691 2.181818 0.589619 -5.553096 -6.675216 5.231493 -2.216392 -7.503360 -8.635758 -6.639091 -8.995153 12.951979 -9.940721 16.135738 4.719326 -4.196218 7.519151 0.000000 0.000000 0.000000 39.535427 -46.300549 -20.907870 14.380262 -23.275663 2.976683 4.991508 32.491841 41.836245 0.000000 0.000000 0.000000 -7.125000 0.000000 0.000000 -15.652230 -10.610744 -18.917276 0.000000 0.000000 0.000000 -67.977824 -27.632454 2.272187 -14.755456 -23.803951 -3.126814 -9.940220 31.313183 47.361628 0.000000 0.000000 0.000000 7.125000 0.000000 0.000000 -13.849087 -14.346787 -169.703718
21.105048 15.210763 -34.389610 14.504245 67.317874 370.018331 0.000000 0.000000 0.000000 -27.125033 4.267437 18.037140 1.250269 7.086537 19.973166 0.258017 8.171152 -15.802620 1.639199 -8.033219 -22.835191 0.000000 0.000000 0.000000 18.124633 28.396423 -12.588206 -1.231849 -7.038530 19.829689 -8.811189 -29.696434 -67.554760 -6.739568 -15.098853 47.864705 -7.137304 -4.205625 1.578146 0.805189 -5.903580 -7.037363 5.254025 -2.390846 -7.502452 -7.847464 -6.634593 -9.541658 12.758183 -10.015129 16.294475 4.501136 -4.171889 7.628207 0.000000 0.000000 0.000000 39.731750 -46.478257 -21.852489 14.324252 -23.196393 2.954599 4.773542 32.339537 41.592948 0.000000 0.000000 0.000000 -7.125000 0.000000 0.000000 -15.737444 -10.351091 -18.970897 0.000000 0.000000 0.000000 -67.964648 -28.331673 1.005458 -14.286371 -23.141169 -2.940638 -13.878910 34.566202 47.805735 0.000000 0.000000 0.000000 7.125000 0.000000 0.000000 -12.028351 -12.998131 -170.776874
21.575356 15.273920 -34.009766 13.895723 66.423164 369.249406 0.000000 0.000000 0.000000 -24.423174 6.727220 15.165256 2.118276 9.105828 26.128704 -0.069092 6.498178 -7.226497 1.835097 -8.324537 -23.835086 0.000000 0.000000 0.000000 20.108917 29.503267 -9.637915 -1.208278 -6.973351 19.636477 -6.707634 -31.625704 -63.795099 -7.072587 -15.392654 49.148194 -6.229939 -4.451413 1.437485 1.248090 -6.147018 -7.465066 5.245866 -2.521666 -7.885847 -7.940031 -6.650423 -9.862586 13.501212 -10.178766 16.584853 4.744948 -4.166121 7.847937 0.000000 0.000000 0.000000 37.708278 -46.754098 -22.186326 14.094148 -22.869244 2.864575 5.289063 33.377757 41.266070 0.000000 0.000000 0.000000 -7.125000 0.000000 0.000000 -15.455948 -10.102120 -18.553461 0.000000 0.000000 0.000000 -66.608836 -29.154324 -0.350293 -14.301086 -23.163531 -2.945479 -17.515033 39.259785 48.596927 0.000000 0.000000 0.000000 7.125000 0.000000 0.000000 -10.444534 -11.337879 -171.670167
21.994446 15.368874 -33.646329 11.236790 64.590769 365.671629 0.000000 0.000000 0.000000 -20.935232 8.474359 11.124653 3.828348 11.924135 35.469971 -0.051363 6.632282 3.143382 0.648440 -5.150866 -14.339478 0.000000 0.000000 0.000000 22.999197 20.971736 -8.784057 -1.038115 -6.479907 18.183389 -1.391312 -30.947584 -48.386176 -7.075593 -15.389795 49.150284 -4.704208 -4.401304 2.077942 1.725829 -5.998403 -7.252146 4.949838 -2.530134 -8.131593 -7.155767 -6.723060 -10.561101 13.831240 -10.483670 16.863618 4.675396 -4.188062 8.083987 0.000000 0.000000 0.000000 37.786132 -46.991245 -24.825999 14.300070 -23.162037 2.945068 6.649429 30.858957 40.484136 0.000000 0.000000 0.000000 -7.125000 0.000000 0.000000 -14.712215 -9.529189 -17.481161 0.000000 0.000000 0.000000 -64.154016 -31.417991 -4.707534 -13.600698 -22.160232 -2.676121 -20.035128 46.468073 49.305669 0.000000 0.000000 0.000000 7.125000 0.000000 0.000000 -9.425329 -10.002998 -172.247490
